<svg xmlns="http://www.w3.org/2000/svg" viewBox="0 0 542.05 143.66"><defs><style>.cls-1{fill:#00b3c1;}</style></defs><title>Ativo 4</title><g id="Camada_2" data-name="Camada 2"><g id="OBJECTS"><path class="cls-1" d="M471.1,42.76a29.07,29.07,0,1,0,29.43,29.07A29.24,29.24,0,0,0,471.1,42.76Zm0,1.4.89,0c0,.24-.28.42-.63.7s-1.78,2-2.27,1.71c-.32-.17-.07-.48-.17-.72s-.32-.36-.44-.56a8.31,8.31,0,0,1-.53-1A29.93,29.93,0,0,1,471.1,44.16Zm3.68,33.49a9.09,9.09,0,0,0-1.7,3.88c-.15.8.18,1.41-.61,2-.6.45-1.22.45-1.65,1.14s-.34,1.42-.71,2a10.86,10.86,0,0,1-1.4,1.48,4.45,4.45,0,0,1-.73.71c-.48.25-.73-.14-.71.66,0,.64.38.46-.08,1-.24.3-.56.54-.79.84a2.49,2.49,0,0,0-.48,2.4c.09.5,0,1,0,1.44s.6.91.51,1.42c-1.37.22-2.31-1.42-2.55-2.5-.32-1.44-.76-2.81-1-4.3s-.82-2.64-.82-4.21.07-2.88-1-3.94c-.82-.81-2-1.16-2.47-2.22a8.94,8.94,0,0,1-.36-2c-.18-.78-.79-1-1.36-1.41-1.12-.83-1.05-2.54-.6-3.7.31-.79,2.05-3.09,1.28-4-.45-.52-1.27.16-1.75,0a9.58,9.58,0,0,1-1.25-.82c-.1-.81-.54-.93-1.27-1.08a2,2,0,0,0-1.74-1.44c-1-.12-1.21-.62-1.75-1.39-.67-1-.45-1.23-.33-2.35a7.7,7.7,0,0,0,0-2.95c-1,.11-.47,2.11-1.6,1.77-.1-.93.42-1.41.71-2.22a20.63,20.63,0,0,0,.29-2,5.82,5.82,0,0,1,.87-1.9c.43-.58,1.13-.82,1.54-1.43a2.77,2.77,0,0,0,.29-.6,27.94,27.94,0,0,1,14.26-7.34,2.11,2.11,0,0,1,.27.3c.19.39.44.62-.09,1-.92.69-1.46-.5-2.2-.36s-1.1,1-2,1.17-2,.18-2,1.23a4.34,4.34,0,0,0,.88.21,3.64,3.64,0,0,1-.07,1.32c1.06.18.78-.32,1.08-1s1-.54,1.38-1.06.23-1.23,1.13-.89c.54.2.66.71,1.37.62a1.3,1.3,0,0,1,0,.87c.84,0,.95.43,1.34,1,.24.34,1,1.38-.08,1.41-.55,0-.33-.31-.71-.56s-.33-.13-.81,0c-.67.12-1.58,0-.94.72.51.58,1.29.7.19,1.14a7.34,7.34,0,0,1-.9.36c-.55.12-.34-.13-.76-.15-1.15-.08-.11.88-.9,1.39-.52.34-1.08.3-1.59.76s-.91.86-1.32,1.29-.58,1.22-1,1.8-.93.57-.87,1.45c0,.53.24,1.51-.54,1.69-.08-.65.26-1.2,0-1.78a1.27,1.27,0,0,0-1.39-.72,6.56,6.56,0,0,0-2.91,1.87c-.46.62-1.25,2.68-.73,3.42.79,1.12,1.8-1.46,2.73-1.42.46,1-.64,1.6-.52,2.48.9.3,1.71.39,1.26,1.63l.18.36c-.07,1.11.15,1.57,1.36,1.34a7.2,7.2,0,0,0,2.25-.83,4.19,4.19,0,0,1,1-.58c.47-.07.93.27,1.36.32a9.47,9.47,0,0,0,1.25-.16c.51,0,.85.26,1.35.28.18.46,1,.91,1.37,1.17a5.36,5.36,0,0,0,1,.54c.3.11.83.13,1.07.26a2.71,2.71,0,0,1,.93,2c0,.52-.73,1.6-.48,2,.45.7,1.19-.39,1.73-.4.35,0,.31.2.65.29s.6,0,1,0a15.71,15.71,0,0,1,1.9.72c.86.22,1.2,0,1.84.69C476.32,75.18,475.86,76.31,474.78,77.65ZM499,74a13.63,13.63,0,0,0-.37,2.15c0,.17,0,.32,0,.46-.15.84-.34,1.67-.56,2.49-.17.33-.35.66-.49,1a23.5,23.5,0,0,1-2.14,3.58c-.78,1.19-1.31,2.69-2.49,3.57-.6.45-1.1.78-1.61.19a2.38,2.38,0,0,1-.34-2.15c.21-.72.72-1.35.91-2.06a18.58,18.58,0,0,0,.32-2.24,11.6,11.6,0,0,0-.26-2.15c0-.81.47-1.39.64-2.15a21.24,21.24,0,0,0,.47-2.35,2,2,0,0,0-.58-2,2.54,2.54,0,0,1-.62-2.06c.12-.59.73-1.52.18-2-.67.59-1.17-.13-1.74-.37s-.81.15-1.5.47a9.59,9.59,0,0,1-1.9.54,1.74,1.74,0,0,1-1.72-.49c-.78-.87-1.74-1.9-2.41-2.83a7.5,7.5,0,0,1-.42-.92c-.18-.3-.63-.52-.75-.78-.3-.59.48-1.37.56-2.08.16-1.29-1-3-.43-4.11.24-.48,1-.76,1.16-1.36.09-.42-.31-.54,0-1,.17-.26.43-.28.68-.42.91-.51,3.17-1.81,4.16-1,.25.21.18.58.46.79s.71.07,1,.22c.57.31.86.84,1.52,1,.13-1.13,2.81.6,1.72-1.58A2.5,2.5,0,0,0,490.05,53c.07.09.14.33.27.44-.88.7-.85-.08-1.21-.63a3.44,3.44,0,0,0-1.5-1c0,.31.3.54.24.88-.54,0-.79-.65-1.19-1a1.57,1.57,0,0,0-1.33-.47c-1.36.17-.47,1.8-1.66,2.22a1.8,1.8,0,0,1-2.34-1.59c0-.77.78-.39.91-1s-.55-.81-.89-1c.6-1.36-2.22-1.16-2.26-2.4,0-.83,1-.43,1.32-.06s.78,1.35,1.27.51-.74-.87-1.14-1c-.69-.23-.93-.7-1.31-1.22-.12-.17-.24-.31-.35-.46a28,28,0,0,1,12,7,27.34,27.34,0,0,1,8.2,19.57c0,.73,0,1.45-.09,2.17Zm42.82-27A28.56,28.56,0,0,0,538,35.55a30,30,0,0,0-8.47-9,41.21,41.21,0,0,0-11.2-5.49,56.76,56.76,0,0,0-8-1.88,1.73,1.73,0,0,0-2,1.73l0,.17a1.91,1.91,0,0,0,1.56,2.27,48.86,48.86,0,0,1,7,1.63,36.75,36.75,0,0,1,10,4.82,27,27,0,0,1,7.42,7.73c3.84,6,4.6,13.51,3.14,20.58a47.28,47.28,0,0,1-3.4,10.21,75.44,75.44,0,0,0-4.5-7.12,99.46,99.46,0,0,0-19.19-19.76,85.86,85.86,0,0,0-6-14.59.54.54,0,0,0-.07-.13c0-.06-.28,0-.56.22s-.33.21-.51.31a7.12,7.12,0,0,1-.79.37c-.45.18-.81.33-.79.38l0,.08a81.86,81.86,0,0,1,4.17,10,125.26,125.26,0,0,0-11.62-7.38,127.61,127.61,0,0,0-13.22-6.37c2.16-.45,4.33-.84,6.52-1.14,1.13-.15,1.16-.61.4-1.45a4.14,4.14,0,0,1-.42-.54c-.61-.95-1.41-1.82-2.54-1.67a72.2,72.2,0,0,0-10.57,2.28,104.42,104.42,0,0,0-25.82-5.56,84,84,0,0,0-8.7-.19,51.3,51.3,0,0,1,6.21-6.12A37.56,37.56,0,0,1,456,4a29.54,29.54,0,0,1,22.52.16,36.87,36.87,0,0,1,9.65,6c1,.86,2,1.76,2.89,2.69s1.8,1.07,2.35.65.45-1.35-.36-2.14q-1.55-1.53-3.26-2.93a39.13,39.13,0,0,0-10.42-6.17,31.58,31.58,0,0,0-24.08.15,39,39,0,0,0-10.23,6.3A52.37,52.37,0,0,0,438,16.14a59.14,59.14,0,0,0-13.74,2.37A40.77,40.77,0,0,0,413,23.83a30.39,30.39,0,0,0-8.57,8.86,28.05,28.05,0,0,0-4,11.42A35.39,35.39,0,0,0,401,56a49.28,49.28,0,0,0,2.22,7.37,1.79,1.79,0,0,0,2.55.87l.31-.13a1.84,1.84,0,0,0,1.2-2.44,42.8,42.8,0,0,1-2-6.48,31.86,31.86,0,0,1-.59-10.6,25.51,25.51,0,0,1,3.39-9.92c3.61-6.15,10.1-10.52,17.33-12.86a54.5,54.5,0,0,1,10-2.19,73.43,73.43,0,0,0-4.5,7.56,92.46,92.46,0,0,0-8.22,23.92,85.06,85.06,0,0,0-9.75,11.46l-.22.33c-.12.19.3.57.89,1,.38.24.74.5,1.06.7l.16.1c.08,0,.19,0,.22,0a.86.86,0,0,1,.07-.1,83,83,0,0,1,6.59-7.84,111.63,111.63,0,0,0-1.16,14.59A113.27,113.27,0,0,0,421,82.94c-.92-1-1.83-2-2.7-3.08-.72-.87-1.59-.72-2.25.19l-.23.31a2.14,2.14,0,0,0-.3,2.83,80.24,80.24,0,0,0,6.39,6.71,90.07,90.07,0,0,0,8.18,25.91q1.45,2.89,3.2,5.69a53.28,53.28,0,0,1-7.53-1.81,38,38,0,0,1-10.33-5.11,27.63,27.63,0,0,1-7.61-8.13,25.78,25.78,0,0,1-3.5-10.34A32.76,32.76,0,0,1,405,85.22c.25-1.08.54-2.15.87-3.2s.38-2,.07-2.17a5.77,5.77,0,0,1-.56-.27,5.65,5.65,0,0,1-.58-.36c-.32-.21-.86.47-1.19,1.54-.39,1.32-.73,2.65-1,4a34.75,34.75,0,0,0-.46,11.6,27.8,27.8,0,0,0,3.92,11,29.59,29.59,0,0,0,8.27,8.6,39.74,39.74,0,0,0,10.9,5.19,55.45,55.45,0,0,0,9.08,2,54.5,54.5,0,0,0,10,11.47,40.17,40.17,0,0,0,10.48,6.5,33.26,33.26,0,0,0,12.43,2.58,32.77,32.77,0,0,0,12.5-2.42,40.27,40.27,0,0,0,10.64-6.41,52.05,52.05,0,0,0,5.68-5.52,1.59,1.59,0,0,0-.5-2.5l-.24-.16a2.09,2.09,0,0,0-2.86.2,47.71,47.71,0,0,1-5,4.88,36.21,36.21,0,0,1-9.44,5.77,29.72,29.72,0,0,1-10.81,2.2c-7.45.13-14.71-3-20.47-7.73a51.09,51.09,0,0,1-8.11-8.45,82.37,82.37,0,0,0,10.54,0,107.79,107.79,0,0,0,25.34-5,101.45,101.45,0,0,0,15.89,2.7c1.14.1,1.94-.27,1.87-.8a6.24,6.24,0,0,1-.07-1c0-.16,0-.31,0-.47s-.87-.54-2-.67a97.2,97.2,0,0,1-10.17-1.71,128.23,128.23,0,0,0,14.82-6.68,124.22,124.22,0,0,0,10.76-6.43c-.62,1.77-1.28,3.53-2,5.26-.45,1,0,1.44,1.11,1.18a11,11,0,0,1,1.17-.21,3.83,3.83,0,0,0,2.85-2,53.7,53.7,0,0,0,2.75-8.41A96.58,96.58,0,0,0,531,79.85c1.45-2,2.81-4.08,4.06-6.22a45.76,45.76,0,0,1,2.74,8.65,33.06,33.06,0,0,1,.48,11,26,26,0,0,1-3.67,10.29,27.49,27.49,0,0,1-7.74,8,37.55,37.55,0,0,1-10.35,4.89,48.75,48.75,0,0,1-4.8,1.19c-1.11.22-2,.67-1.92,1.06a5.81,5.81,0,0,1,.05.72,4.89,4.89,0,0,1,0,.54c0,.29.85.37,2,.14a50.62,50.62,0,0,0,5.53-1.47,39.65,39.65,0,0,0,10.87-5.42,29.6,29.6,0,0,0,8.15-8.7,27.6,27.6,0,0,0,3.75-11.06A34.38,34.38,0,0,0,539.43,82,48.87,48.87,0,0,0,536,72.05a51.46,51.46,0,0,0,5.14-13.25A35.7,35.7,0,0,0,541.84,47ZM432.13,27.75a64.16,64.16,0,0,1,5.16-8.34,73.52,73.52,0,0,1,11.11-.22A99.81,99.81,0,0,1,470.34,23l-.5.16a120.47,120.47,0,0,0-22.13,9.55,117.49,117.49,0,0,0-23,16.42A82.8,82.8,0,0,1,432.13,27.75Zm17,94.47a72.51,72.51,0,0,1-11.51-.14,65.85,65.85,0,0,1-4.71-7.57A86.2,86.2,0,0,1,425,92.67c.71.62,1.42,1.23,2.18,1.86A117.15,117.15,0,0,0,447,107.84a124.38,124.38,0,0,0,24.91,10A96.26,96.26,0,0,1,449.14,122.22Zm44.8-14a125.79,125.79,0,0,1-16.57,7.66A117.42,117.42,0,0,1,449,104.62a113.9,113.9,0,0,1-25.25-18.83,109.88,109.88,0,0,1-1.2-14.48,108.93,108.93,0,0,1,1.13-16.61,110.71,110.71,0,0,1,26-18.74,121.45,121.45,0,0,1,27.44-10.77,119,119,0,0,1,29.6,15.5,100.7,100.7,0,0,1,4.34,30.62,102.92,102.92,0,0,1-4.17,28.55A123.15,123.15,0,0,1,493.94,108.27Zm34.47-30.08a91.17,91.17,0,0,1-16,17.3c.1-.43.19-.85.29-1.32A104.76,104.76,0,0,0,515,71.31a106.57,106.57,0,0,0-3.8-27.24,90,90,0,0,1,17.26,17.85,64.7,64.7,0,0,1,4.87,8A65,65,0,0,1,528.41,78.19Zm-36-60.37,2.75-.72a8.57,8.57,0,0,0,3.42-2l2-2c.79-.81,1.43-.55,1.44.57l0,4.59,0,4.59c0,1.12-.79,1.58-1.78,1l-4-2.27-4-2.27C491.23,18.78,491.32,18.1,492.42,17.82Zm14,97.38-.8,2.71a8.47,8.47,0,0,0-.05,3.91l.74,2.72c.29,1.08-.26,1.5-1.24.93l-4-2.35-4-2.34a1.07,1.07,0,0,1,0-2l4.05-2.24,4.05-2.25C506.16,113.7,506.7,114.13,506.38,115.2ZM402.05,73.39c-1.09-.33-1.15-1-.14-1.52L406,69.76l4.12-2.11c1-.51,1.79,0,1.74,1.1l-.22,4.58-.22,4.59c0,1.12-.71,1.35-1.46.51l-1.9-2.1a8.59,8.59,0,0,0-3.33-2.12Z"/><path class="cls-1" d="M20.17,88.71h-.41L0,75.8V72.08L20.17,59.15v7.56L8.47,73.93l11.7,7.25Z"/><path class="cls-1" d="M69.12,46.15l-7.79,49H53.54L48.78,67.4q-.08-1.5-.27-4.47,0,1.5-.27,4.47L43.51,95.12H35.69l-7.79-49H36l4.11,29c.07,1,.16,2.49.28,4.47q0-1.5.3-4.47l4.59-29h6.53l4.59,29c.07,1,.17,2.49.31,4.47q0-1.5.27-4.47l4.12-29Z"/><path class="cls-1" d="M99.36,91.15q0,3.9-4.32,3.9H81.1c-2.92,0-4.39-1.3-4.39-3.9V67.4c0-2.61,1.47-3.91,4.39-3.91H95q4.32,0,4.32,3.91Zm-7.62-2V69.46H84.36V89.12Z"/><path class="cls-1" d="M130.19,76.68h-7.72V69.46l-6.16.12V95.05h-7.79V63.49h7.79v1.16l4.8-.82a31.14,31.14,0,0,1,4.82-.46q4.26,0,4.26,3.84Z"/><path class="cls-1" d="M161,95.05h-8.29l-6.84-14.47V95.05h-7.79V46.15h7.79V75.52l6.16-12h8.12v.13L152.27,78Z"/><path class="cls-1" d="M200.5,95.05h-7.65V70.93a40.62,40.62,0,0,1,.48-5.31l-6.87,25h-4.05l-6.9-25a41.8,41.8,0,0,1,.48,5.31V95.05h-7.65V46.15h7.51l8.37,27a11.57,11.57,0,0,1,.2,2.22,16.55,16.55,0,0,1,.21-2.22l8.36-27h7.51Z"/><path class="cls-1" d="M232.15,95.05H224.7V94l-5.31.75a43.29,43.29,0,0,1-5.27.47q-4.25,0-4.25-3.85V80c0-2.6,1.46-3.91,4.39-3.91h10.51V68.8h-7.45v4.5h-7V67.4q0-3.91,4.39-3.91h13.16q4.32,0,4.32,3.91Zm-7.38-5.68V80.9h-7.45v8.72Z"/><path class="cls-1" d="M256.1,95.05h-8.64q-4.32,0-4.32-3.9V69.58h-3.67V63.49h3.67V54.93h7.76v8.56h5v6.09h-5V89h5.2Z"/><path class="cls-1" d="M286.18,91.15q0,3.9-4.32,3.9h-13.5q-4.39,0-4.39-3.9V67.4q0-3.91,4.39-3.91h13.5q4.32,0,4.32,3.91v7.5h-7.59V69.46h-7V89.12h7v-6h7.59Z"/><path class="cls-1" d="M318.23,95.05H310.4V69.46l-7.31.12V95.05h-7.78V46.15h7.78v18.5q2.73-.37,5.44-.78a39,39,0,0,1,5.45-.5q4.25,0,4.25,3.84Z"/><path class="cls-1" d="M354.15,46.62l-21,48.43h-7.25v-.43l21-48.47h7.24Z"/><path class="cls-1" d="M382.22,75.8,362.43,88.71H362V81.18l11.77-7.25L362,66.71V59.15h.48l19.79,12.93Z"/></g></g></svg>